<svg xmlns="http://www.w3.org/2000/svg" viewBox="0 0 1200 675">
<defs><linearGradient id="bg" x1="0" y1="0" x2="1" y2="1"><stop offset="0" stop-color="#05070b"/><stop offset=".58" stop-color="#0d1724"/><stop offset="1" stop-color="#1a0f07"/></linearGradient><linearGradient id="field" x1="0" y1="0" x2="1" y2="1"><stop offset="0" stop-color="#153d2c"/><stop offset="1" stop-color="#0b241b"/></linearGradient><linearGradient id="orange" x1="0" y1="0" x2="1" y2="1"><stop offset="0" stop-color="#ff8a00"/><stop offset="1" stop-color="#ff4d00"/></linearGradient><filter id="s"><feDropShadow dx="0" dy="18" stdDeviation="20" flood-opacity=".5"/></filter></defs>
<rect width="1200" height="675" fill="url(#bg)"/><circle cx="980" cy="120" r="220" fill="#ff6a00" opacity=".13"/><circle cx="120" cy="580" r="250" fill="#1b78ff" opacity=".12"/>
<g transform="translate(615 110) rotate(-8)" filter="url(#s)"><rect x="0" y="70" width="500" height="330" rx="36" fill="url(#field)" stroke="#2f7555" stroke-width="8"/><path d="M70 95 L430 95 M70 145 L430 145 M70 195 L430 195 M70 245 L430 245 M70 295 L430 295 M70 345 L430 345" stroke="#fff" stroke-opacity=".12" stroke-width="5"/><ellipse cx="250" cy="235" rx="75" ry="115" fill="#7b3f17" stroke="#ffcc7a" stroke-width="9"/><path d="M250 122v226M180 235h140M204 160c38 32 72 32 110 0M204 310c38-32 72-32 110 0" stroke="#ffcc7a" stroke-width="9" fill="none"/></g>
<g transform="translate(80 104)"><rect x="0" y="0" width="92" height="92" rx="18" fill="#09111c" stroke="#2c81ff" stroke-opacity=".45"/><path d="M24 68h44L50 20h-8z" fill="#fff"/><path d="M30 58h32" stroke="#ff8a00" stroke-width="8" stroke-linecap="round"/><text x="0" y="178" font-family="Inter,Arial" font-weight="900" font-size="82" fill="#fff">LEGACY</text><text x="0" y="270" font-family="Inter,Arial" font-weight="900" font-size="92" fill="url(#orange)">LEAGUE</text><text x="4" y="334" font-family="Inter,Arial" font-weight="800" font-size="30" fill="#b9c7e6">CAREER SPORTS LIFE SIM</text><text x="4" y="430" font-family="Inter,Arial" font-weight="700" font-size="31" fill="#d6dbe7">Recruit. Build. Win.</text></g>
</svg>