<svg xmlns="http://www.w3.org/2000/svg" width="900" height="520" viewBox="0 0 900 520">
<defs><linearGradient id="g" x1="0" x2="1" y1="0" y2="1"><stop offset="0" stop-color="#0d9d57"/><stop offset="1" stop-color="#052318"/></linearGradient><filter id="s"><feDropShadow dx="0" dy="8" stdDeviation="7" flood-color="#000" flood-opacity=".65"/></filter></defs>
<rect width="900" height="520" fill="#060606"/>
<rect x="28" y="28" width="844" height="464" rx="38" fill="url(#g)" stroke="#ff7a00" stroke-width="5"/>
<circle cx="720" cy="150" r="135" fill="#fff" opacity=".08"/><circle cx="160" cy="390" r="185" fill="#000" opacity=".22"/>
<g fill="#fff" opacity=".13" font-family="Arial Black,Arial" font-size="45"><text x="75" y="110">?</text><text x="775" y="355">★</text><text x="650" y="92">?</text><text x="130" y="455">★</text></g>
<g filter="url(#s)"><text x="78" y="150" fill="#fff" stroke="#070707" stroke-width="9" paint-order="stroke" font-family="Arial Black,Arial" font-size="90">GUESS</text><text x="78" y="250" fill="#ffcf24" stroke="#070707" stroke-width="9" paint-order="stroke" font-family="Arial Black,Arial" font-size="90">THE WORD!</text></g>
<text x="86" y="318" fill="#fff3df" font-family="Arial Black,Arial" font-size="34">Crack the hidden answer.</text>
<g transform="translate(592 245)" filter="url(#s)"><rect x="0" y="20" width="275" height="195" rx="24" fill="#121a19" stroke="#fff" stroke-width="7"/><g font-family="Arial Black,Arial" font-size="45" text-anchor="middle"><rect x="24" y="48" width="52" height="52" rx="8" fill="#26302d" stroke="#fff"/><text x="50" y="90" fill="#fff">W</text><rect x="88" y="48" width="52" height="52" rx="8" fill="#26302d" stroke="#fff"/><text x="114" y="90" fill="#fff">O</text><rect x="152" y="48" width="52" height="52" rx="8" fill="#ffb000" stroke="#fff"/><text x="178" y="90" fill="#fff">R</text><rect x="216" y="48" width="52" height="52" rx="8" fill="#26302d" stroke="#fff"/><text x="242" y="90" fill="#fff">D</text></g><circle cx="242" cy="168" r="47" fill="#ffcf24" stroke="#fff" stroke-width="6"/><path d="M242 214v34" stroke="#ffcf24" stroke-width="12" stroke-linecap="round"/></g>
<rect x="76" y="368" width="290" height="58" rx="29" fill="#080808" opacity=".78" stroke="#ff7a00"/>
<text x="105" y="407" fill="#ff8a00" font-family="Arial Black,Arial" font-size="26">FLASHPORTAL</text>
</svg>